<mxfile host="app.diagrams.net" modified="2023-04-26T03:21:58.733Z" agent="Mozilla/5.0 (Windows NT 10.0; Win64; x64) AppleWebKit/537.36 (KHTML, like Gecko) Chrome/112.0.0.0 Safari/537.36" etag="XmRTUZkRix58ZRLcCyZ-" version="21.2.1" type="github">
  <diagram id="x-QGgaz4Aby_YRyaFQe0" name="PÃ¡gina-1">
    <mxGraphModel dx="2630" dy="1970" grid="1" gridSize="10" guides="1" tooltips="1" connect="1" arrows="1" fold="1" page="1" pageScale="1" pageWidth="827" pageHeight="1169" math="0" shadow="0">
      <root>
        <mxCell id="0" />
        <mxCell id="1" parent="0" />
        <mxCell id="SFeuMDwEzgv_Abs5cE5h-1" style="edgeStyle=orthogonalEdgeStyle;rounded=0;orthogonalLoop=1;jettySize=auto;html=1;exitX=0.75;exitY=0;exitDx=0;exitDy=0;endArrow=none;endFill=0;entryX=0.5;entryY=1;entryDx=0;entryDy=0;" parent="1" source="SFeuMDwEzgv_Abs5cE5h-2" target="SFeuMDwEzgv_Abs5cE5h-76" edge="1">
          <mxGeometry relative="1" as="geometry">
            <mxPoint x="205" y="270" as="targetPoint" />
            <Array as="points">
              <mxPoint x="200" y="370" />
            </Array>
          </mxGeometry>
        </mxCell>
        <mxCell id="SFeuMDwEzgv_Abs5cE5h-2" value="Cliente" style="rounded=1;arcSize=10;whiteSpace=wrap;html=1;align=center;" parent="1" vertex="1">
          <mxGeometry x="130" y="370" width="100" height="40" as="geometry" />
        </mxCell>
        <mxCell id="SFeuMDwEzgv_Abs5cE5h-3" style="edgeStyle=orthogonalEdgeStyle;rounded=0;orthogonalLoop=1;jettySize=auto;html=1;exitX=1;exitY=0.5;exitDx=0;exitDy=0;entryX=0.5;entryY=0;entryDx=0;entryDy=0;endArrow=none;endFill=0;" parent="1" source="SFeuMDwEzgv_Abs5cE5h-4" target="SFeuMDwEzgv_Abs5cE5h-2" edge="1">
          <mxGeometry relative="1" as="geometry" />
        </mxCell>
        <mxCell id="SFeuMDwEzgv_Abs5cE5h-4" value="&lt;b&gt;Id Cliente&lt;/b&gt;" style="ellipse;whiteSpace=wrap;html=1;align=center;" parent="1" vertex="1">
          <mxGeometry y="290" width="100" height="40" as="geometry" />
        </mxCell>
        <mxCell id="SFeuMDwEzgv_Abs5cE5h-5" style="edgeStyle=orthogonalEdgeStyle;rounded=0;orthogonalLoop=1;jettySize=auto;html=1;exitX=1;exitY=0.5;exitDx=0;exitDy=0;entryX=0.25;entryY=0;entryDx=0;entryDy=0;endArrow=none;endFill=0;" parent="1" source="SFeuMDwEzgv_Abs5cE5h-6" target="SFeuMDwEzgv_Abs5cE5h-2" edge="1">
          <mxGeometry relative="1" as="geometry" />
        </mxCell>
        <mxCell id="SFeuMDwEzgv_Abs5cE5h-6" value="Nome" style="ellipse;whiteSpace=wrap;html=1;align=center;" parent="1" vertex="1">
          <mxGeometry y="330" width="100" height="40" as="geometry" />
        </mxCell>
        <mxCell id="SFeuMDwEzgv_Abs5cE5h-7" style="edgeStyle=orthogonalEdgeStyle;rounded=0;orthogonalLoop=1;jettySize=auto;html=1;exitX=1;exitY=0.5;exitDx=0;exitDy=0;entryX=0;entryY=0.5;entryDx=0;entryDy=0;endArrow=none;endFill=0;" parent="1" source="SFeuMDwEzgv_Abs5cE5h-8" target="SFeuMDwEzgv_Abs5cE5h-2" edge="1">
          <mxGeometry relative="1" as="geometry" />
        </mxCell>
        <mxCell id="SFeuMDwEzgv_Abs5cE5h-8" value="CPF" style="ellipse;whiteSpace=wrap;html=1;align=center;" parent="1" vertex="1">
          <mxGeometry y="370" width="100" height="40" as="geometry" />
        </mxCell>
        <mxCell id="SFeuMDwEzgv_Abs5cE5h-9" style="edgeStyle=orthogonalEdgeStyle;rounded=0;orthogonalLoop=1;jettySize=auto;html=1;exitX=1;exitY=0.5;exitDx=0;exitDy=0;entryX=0.5;entryY=1;entryDx=0;entryDy=0;endArrow=none;endFill=0;" parent="1" source="SFeuMDwEzgv_Abs5cE5h-10" target="SFeuMDwEzgv_Abs5cE5h-2" edge="1">
          <mxGeometry relative="1" as="geometry" />
        </mxCell>
        <mxCell id="SFeuMDwEzgv_Abs5cE5h-10" value="Bairro" style="ellipse;whiteSpace=wrap;html=1;align=center;" parent="1" vertex="1">
          <mxGeometry y="490" width="100" height="40" as="geometry" />
        </mxCell>
        <mxCell id="SFeuMDwEzgv_Abs5cE5h-11" style="edgeStyle=orthogonalEdgeStyle;rounded=0;orthogonalLoop=1;jettySize=auto;html=1;exitX=1;exitY=0.5;exitDx=0;exitDy=0;entryX=0;entryY=1;entryDx=0;entryDy=0;endArrow=none;endFill=0;" parent="1" source="SFeuMDwEzgv_Abs5cE5h-12" target="SFeuMDwEzgv_Abs5cE5h-2" edge="1">
          <mxGeometry relative="1" as="geometry" />
        </mxCell>
        <mxCell id="SFeuMDwEzgv_Abs5cE5h-12" value="E-mail" style="ellipse;whiteSpace=wrap;html=1;align=center;" parent="1" vertex="1">
          <mxGeometry y="410" width="100" height="40" as="geometry" />
        </mxCell>
        <mxCell id="SFeuMDwEzgv_Abs5cE5h-13" style="edgeStyle=orthogonalEdgeStyle;rounded=0;orthogonalLoop=1;jettySize=auto;html=1;exitX=1;exitY=0.5;exitDx=0;exitDy=0;entryX=0.25;entryY=1;entryDx=0;entryDy=0;endArrow=none;endFill=0;" parent="1" source="SFeuMDwEzgv_Abs5cE5h-14" target="SFeuMDwEzgv_Abs5cE5h-2" edge="1">
          <mxGeometry relative="1" as="geometry" />
        </mxCell>
        <mxCell id="SFeuMDwEzgv_Abs5cE5h-14" value="Rua" style="ellipse;whiteSpace=wrap;html=1;align=center;" parent="1" vertex="1">
          <mxGeometry y="450" width="100" height="40" as="geometry" />
        </mxCell>
        <mxCell id="SFeuMDwEzgv_Abs5cE5h-15" style="edgeStyle=orthogonalEdgeStyle;rounded=0;orthogonalLoop=1;jettySize=auto;html=1;exitX=0;exitY=0.25;exitDx=0;exitDy=0;entryX=0.5;entryY=1;entryDx=0;entryDy=0;endArrow=none;endFill=0;" parent="1" source="SFeuMDwEzgv_Abs5cE5h-17" target="SFeuMDwEzgv_Abs5cE5h-18" edge="1">
          <mxGeometry relative="1" as="geometry" />
        </mxCell>
        <mxCell id="SFeuMDwEzgv_Abs5cE5h-16" style="edgeStyle=orthogonalEdgeStyle;rounded=0;orthogonalLoop=1;jettySize=auto;html=1;exitX=0.5;exitY=1;exitDx=0;exitDy=0;endArrow=none;endFill=0;" parent="1" source="SFeuMDwEzgv_Abs5cE5h-17" target="SFeuMDwEzgv_Abs5cE5h-76" edge="1">
          <mxGeometry relative="1" as="geometry">
            <Array as="points">
              <mxPoint x="198" y="180" />
              <mxPoint x="198" y="180" />
            </Array>
          </mxGeometry>
        </mxCell>
        <mxCell id="SFeuMDwEzgv_Abs5cE5h-17" value="CIdade" style="rounded=1;arcSize=10;whiteSpace=wrap;html=1;align=center;" parent="1" vertex="1">
          <mxGeometry x="148" y="90" width="100" height="40" as="geometry" />
        </mxCell>
        <mxCell id="SFeuMDwEzgv_Abs5cE5h-18" value="&lt;b&gt;Id_Cidade&lt;/b&gt;" style="ellipse;whiteSpace=wrap;html=1;align=center;" parent="1" vertex="1">
          <mxGeometry x="32" y="30" width="100" height="40" as="geometry" />
        </mxCell>
        <mxCell id="SFeuMDwEzgv_Abs5cE5h-19" style="edgeStyle=orthogonalEdgeStyle;rounded=0;orthogonalLoop=1;jettySize=auto;html=1;exitX=0.5;exitY=1;exitDx=0;exitDy=0;entryX=0.4;entryY=-0.05;entryDx=0;entryDy=0;entryPerimeter=0;endArrow=none;endFill=0;" parent="1" source="SFeuMDwEzgv_Abs5cE5h-20" target="SFeuMDwEzgv_Abs5cE5h-17" edge="1">
          <mxGeometry relative="1" as="geometry" />
        </mxCell>
        <mxCell id="SFeuMDwEzgv_Abs5cE5h-20" value="Nome" style="ellipse;whiteSpace=wrap;html=1;align=center;" parent="1" vertex="1">
          <mxGeometry x="138" y="30" width="100" height="40" as="geometry" />
        </mxCell>
        <mxCell id="SFeuMDwEzgv_Abs5cE5h-21" style="edgeStyle=orthogonalEdgeStyle;rounded=0;orthogonalLoop=1;jettySize=auto;html=1;exitX=0.5;exitY=1;exitDx=0;exitDy=0;entryX=1;entryY=0.5;entryDx=0;entryDy=0;endArrow=none;endFill=0;" parent="1" source="SFeuMDwEzgv_Abs5cE5h-22" target="SFeuMDwEzgv_Abs5cE5h-17" edge="1">
          <mxGeometry relative="1" as="geometry" />
        </mxCell>
        <mxCell id="SFeuMDwEzgv_Abs5cE5h-22" value="UF" style="ellipse;whiteSpace=wrap;html=1;align=center;" parent="1" vertex="1">
          <mxGeometry x="248" y="30" width="100" height="40" as="geometry" />
        </mxCell>
        <mxCell id="SFeuMDwEzgv_Abs5cE5h-23" style="edgeStyle=orthogonalEdgeStyle;rounded=0;orthogonalLoop=1;jettySize=auto;html=1;exitX=0.5;exitY=1;exitDx=0;exitDy=0;entryX=0;entryY=0.5;entryDx=0;entryDy=0;endArrow=none;endFill=0;" parent="1" source="SFeuMDwEzgv_Abs5cE5h-26" target="SFeuMDwEzgv_Abs5cE5h-35" edge="1">
          <mxGeometry relative="1" as="geometry" />
        </mxCell>
        <mxCell id="SFeuMDwEzgv_Abs5cE5h-24" style="edgeStyle=orthogonalEdgeStyle;rounded=0;orthogonalLoop=1;jettySize=auto;html=1;exitX=0;exitY=0.25;exitDx=0;exitDy=0;entryX=0.5;entryY=0;entryDx=0;entryDy=0;endArrow=none;endFill=0;" parent="1" source="SFeuMDwEzgv_Abs5cE5h-26" target="SFeuMDwEzgv_Abs5cE5h-58" edge="1">
          <mxGeometry relative="1" as="geometry">
            <Array as="points">
              <mxPoint x="852" y="390" />
              <mxPoint x="760" y="390" />
            </Array>
          </mxGeometry>
        </mxCell>
        <mxCell id="SFeuMDwEzgv_Abs5cE5h-25" style="edgeStyle=orthogonalEdgeStyle;rounded=0;orthogonalLoop=1;jettySize=auto;html=1;exitX=0.25;exitY=1;exitDx=0;exitDy=0;entryX=0.5;entryY=0;entryDx=0;entryDy=0;endArrow=none;endFill=0;" parent="1" source="SFeuMDwEzgv_Abs5cE5h-26" target="SFeuMDwEzgv_Abs5cE5h-57" edge="1">
          <mxGeometry relative="1" as="geometry">
            <Array as="points">
              <mxPoint x="877" y="460" />
            </Array>
          </mxGeometry>
        </mxCell>
        <mxCell id="SFeuMDwEzgv_Abs5cE5h-26" value="Carro" style="rounded=1;arcSize=10;whiteSpace=wrap;html=1;align=center;" parent="1" vertex="1">
          <mxGeometry x="852" y="160" width="100" height="40" as="geometry" />
        </mxCell>
        <mxCell id="SFeuMDwEzgv_Abs5cE5h-27" style="edgeStyle=orthogonalEdgeStyle;rounded=0;orthogonalLoop=1;jettySize=auto;html=1;exitX=0;exitY=0.5;exitDx=0;exitDy=0;entryX=0.5;entryY=0;entryDx=0;entryDy=0;endArrow=none;endFill=0;" parent="1" source="SFeuMDwEzgv_Abs5cE5h-28" target="SFeuMDwEzgv_Abs5cE5h-26" edge="1">
          <mxGeometry relative="1" as="geometry" />
        </mxCell>
        <mxCell id="SFeuMDwEzgv_Abs5cE5h-28" value="&lt;b&gt;Id Carro&lt;/b&gt;" style="ellipse;whiteSpace=wrap;html=1;align=center;" parent="1" vertex="1">
          <mxGeometry x="992" y="100" width="100" height="40" as="geometry" />
        </mxCell>
        <mxCell id="SFeuMDwEzgv_Abs5cE5h-29" style="edgeStyle=orthogonalEdgeStyle;rounded=0;orthogonalLoop=1;jettySize=auto;html=1;exitX=0;exitY=0.5;exitDx=0;exitDy=0;entryX=0.75;entryY=0;entryDx=0;entryDy=0;endArrow=none;endFill=0;" parent="1" source="SFeuMDwEzgv_Abs5cE5h-30" target="SFeuMDwEzgv_Abs5cE5h-26" edge="1">
          <mxGeometry relative="1" as="geometry">
            <Array as="points">
              <mxPoint x="952" y="160" />
              <mxPoint x="952" y="160" />
            </Array>
          </mxGeometry>
        </mxCell>
        <mxCell id="SFeuMDwEzgv_Abs5cE5h-30" value="Placa" style="ellipse;whiteSpace=wrap;html=1;align=center;" parent="1" vertex="1">
          <mxGeometry x="992" y="140" width="100" height="40" as="geometry" />
        </mxCell>
        <mxCell id="SFeuMDwEzgv_Abs5cE5h-31" style="edgeStyle=orthogonalEdgeStyle;rounded=0;orthogonalLoop=1;jettySize=auto;html=1;exitX=0;exitY=0.5;exitDx=0;exitDy=0;endArrow=none;endFill=0;entryX=1;entryY=0.75;entryDx=0;entryDy=0;" parent="1" source="SFeuMDwEzgv_Abs5cE5h-32" target="SFeuMDwEzgv_Abs5cE5h-26" edge="1">
          <mxGeometry relative="1" as="geometry">
            <mxPoint x="962" y="200" as="targetPoint" />
            <Array as="points">
              <mxPoint x="952" y="200" />
            </Array>
          </mxGeometry>
        </mxCell>
        <mxCell id="SFeuMDwEzgv_Abs5cE5h-32" value="Portas" style="ellipse;whiteSpace=wrap;html=1;align=center;" parent="1" vertex="1">
          <mxGeometry x="992" y="180" width="100" height="40" as="geometry" />
        </mxCell>
        <mxCell id="SFeuMDwEzgv_Abs5cE5h-33" style="edgeStyle=orthogonalEdgeStyle;rounded=0;orthogonalLoop=1;jettySize=auto;html=1;exitX=0;exitY=0.5;exitDx=0;exitDy=0;entryX=0.75;entryY=1;entryDx=0;entryDy=0;endArrow=none;endFill=0;" parent="1" source="SFeuMDwEzgv_Abs5cE5h-34" target="SFeuMDwEzgv_Abs5cE5h-26" edge="1">
          <mxGeometry relative="1" as="geometry" />
        </mxCell>
        <mxCell id="SFeuMDwEzgv_Abs5cE5h-34" value="Ano" style="ellipse;whiteSpace=wrap;html=1;align=center;" parent="1" vertex="1">
          <mxGeometry x="992" y="220" width="100" height="40" as="geometry" />
        </mxCell>
        <mxCell id="SFeuMDwEzgv_Abs5cE5h-35" value="Combustivel" style="ellipse;whiteSpace=wrap;html=1;align=center;" parent="1" vertex="1">
          <mxGeometry x="992" y="260" width="100" height="40" as="geometry" />
        </mxCell>
        <mxCell id="SFeuMDwEzgv_Abs5cE5h-36" value="CÃ¢mbio" style="ellipse;whiteSpace=wrap;html=1;align=center;" parent="1" vertex="1">
          <mxGeometry x="992" y="300" width="100" height="40" as="geometry" />
        </mxCell>
        <mxCell id="SFeuMDwEzgv_Abs5cE5h-37" value="TraÃ§Ã£o&lt;span style=&quot;color: rgba(0, 0, 0, 0); font-family: monospace; font-size: 0px; text-align: start;&quot;&gt;%3CmxGraphModel%3E%3Croot%3E%3CmxCell%20id%3D%220%22%2F%3E%3CmxCell%20id%3D%221%22%20parent%3D%220%22%2F%3E%3CmxCell%20id%3D%222%22%20value%3D%22C%C3%A2mbio%22%20style%3D%22ellipse%3BwhiteSpace%3Dwrap%3Bhtml%3D1%3Balign%3Dcenter%3B%22%20vertex%3D%221%22%20parent%3D%221%22%3E%3CmxGeometry%20x%3D%22580%22%20y%3D%22460%22%20width%3D%22100%22%20height%3D%2240%22%20as%3D%22geometry%22%2F%3E%3C%2FmxCell%3E%3C%2Froot%3E%3C%2FmxGraphModel%3E&lt;/span&gt;" style="ellipse;whiteSpace=wrap;html=1;align=center;" parent="1" vertex="1">
          <mxGeometry x="992" y="340" width="100" height="40" as="geometry" />
        </mxCell>
        <mxCell id="SFeuMDwEzgv_Abs5cE5h-38" value="ObservaÃ§Ã£o" style="ellipse;whiteSpace=wrap;html=1;align=center;" parent="1" vertex="1">
          <mxGeometry x="992" y="380" width="100" height="40" as="geometry" />
        </mxCell>
        <mxCell id="SFeuMDwEzgv_Abs5cE5h-39" style="edgeStyle=orthogonalEdgeStyle;rounded=0;orthogonalLoop=1;jettySize=auto;html=1;exitX=0.75;exitY=1;exitDx=0;exitDy=0;entryX=0;entryY=0;entryDx=0;entryDy=0;endArrow=none;endFill=0;" parent="1" source="SFeuMDwEzgv_Abs5cE5h-41" target="SFeuMDwEzgv_Abs5cE5h-43" edge="1">
          <mxGeometry relative="1" as="geometry" />
        </mxCell>
        <mxCell id="SFeuMDwEzgv_Abs5cE5h-40" style="edgeStyle=orthogonalEdgeStyle;rounded=0;orthogonalLoop=1;jettySize=auto;html=1;exitX=0.25;exitY=1;exitDx=0;exitDy=0;entryX=0.76;entryY=0.075;entryDx=0;entryDy=0;entryPerimeter=0;endArrow=none;endFill=0;" parent="1" source="SFeuMDwEzgv_Abs5cE5h-41" target="SFeuMDwEzgv_Abs5cE5h-42" edge="1">
          <mxGeometry relative="1" as="geometry" />
        </mxCell>
        <mxCell id="SFeuMDwEzgv_Abs5cE5h-41" value="Fabricante" style="rounded=1;arcSize=10;whiteSpace=wrap;html=1;align=center;" parent="1" vertex="1">
          <mxGeometry x="1114" y="620" width="100" height="40" as="geometry" />
        </mxCell>
        <mxCell id="SFeuMDwEzgv_Abs5cE5h-42" value="&lt;b&gt;Id Fabricante&lt;/b&gt;" style="ellipse;whiteSpace=wrap;html=1;align=center;" parent="1" vertex="1">
          <mxGeometry x="1064" y="690" width="100" height="40" as="geometry" />
        </mxCell>
        <mxCell id="SFeuMDwEzgv_Abs5cE5h-43" value="Nome Fabricante" style="ellipse;whiteSpace=wrap;html=1;align=center;" parent="1" vertex="1">
          <mxGeometry x="1164" y="690" width="100" height="40" as="geometry" />
        </mxCell>
        <mxCell id="SFeuMDwEzgv_Abs5cE5h-44" style="edgeStyle=orthogonalEdgeStyle;rounded=0;orthogonalLoop=1;jettySize=auto;html=1;exitX=0.75;exitY=1;exitDx=0;exitDy=0;entryX=0;entryY=0;entryDx=0;entryDy=0;endArrow=none;endFill=0;" parent="1" source="SFeuMDwEzgv_Abs5cE5h-47" target="SFeuMDwEzgv_Abs5cE5h-49" edge="1">
          <mxGeometry relative="1" as="geometry" />
        </mxCell>
        <mxCell id="SFeuMDwEzgv_Abs5cE5h-45" style="edgeStyle=orthogonalEdgeStyle;rounded=0;orthogonalLoop=1;jettySize=auto;html=1;exitX=0.25;exitY=1;exitDx=0;exitDy=0;endArrow=none;endFill=0;" parent="1" source="SFeuMDwEzgv_Abs5cE5h-47" edge="1">
          <mxGeometry relative="1" as="geometry">
            <mxPoint x="923" y="700" as="targetPoint" />
            <Array as="points">
              <mxPoint x="928" y="700" />
            </Array>
          </mxGeometry>
        </mxCell>
        <mxCell id="SFeuMDwEzgv_Abs5cE5h-46" style="edgeStyle=orthogonalEdgeStyle;rounded=0;orthogonalLoop=1;jettySize=auto;html=1;exitX=0.75;exitY=0;exitDx=0;exitDy=0;endArrow=none;endFill=0;" parent="1" source="SFeuMDwEzgv_Abs5cE5h-47" target="SFeuMDwEzgv_Abs5cE5h-55" edge="1">
          <mxGeometry relative="1" as="geometry" />
        </mxCell>
        <mxCell id="SFeuMDwEzgv_Abs5cE5h-47" value="Modelo" style="rounded=1;arcSize=10;whiteSpace=wrap;html=1;align=center;" parent="1" vertex="1">
          <mxGeometry x="903" y="620" width="100" height="40" as="geometry" />
        </mxCell>
        <mxCell id="SFeuMDwEzgv_Abs5cE5h-48" value="&lt;b&gt;Id Modelo&lt;/b&gt;" style="ellipse;whiteSpace=wrap;html=1;align=center;" parent="1" vertex="1">
          <mxGeometry x="843" y="690" width="100" height="40" as="geometry" />
        </mxCell>
        <mxCell id="SFeuMDwEzgv_Abs5cE5h-49" value="Nome Modelo" style="ellipse;whiteSpace=wrap;html=1;align=center;" parent="1" vertex="1">
          <mxGeometry x="953" y="690" width="100" height="40" as="geometry" />
        </mxCell>
        <mxCell id="SFeuMDwEzgv_Abs5cE5h-50" style="edgeStyle=orthogonalEdgeStyle;rounded=0;orthogonalLoop=1;jettySize=auto;html=1;exitX=0.25;exitY=1;exitDx=0;exitDy=0;entryX=0.76;entryY=0.075;entryDx=0;entryDy=0;entryPerimeter=0;endArrow=none;endFill=0;" parent="1" source="SFeuMDwEzgv_Abs5cE5h-51" target="SFeuMDwEzgv_Abs5cE5h-52" edge="1">
          <mxGeometry relative="1" as="geometry">
            <Array as="points">
              <mxPoint x="735" y="593" />
            </Array>
          </mxGeometry>
        </mxCell>
        <mxCell id="SFeuMDwEzgv_Abs5cE5h-51" value="Cor" style="rounded=1;arcSize=10;whiteSpace=wrap;html=1;align=center;" parent="1" vertex="1">
          <mxGeometry x="710" y="510" width="100" height="40" as="geometry" />
        </mxCell>
        <mxCell id="SFeuMDwEzgv_Abs5cE5h-52" value="&lt;b&gt;Id Cor&lt;/b&gt;" style="ellipse;whiteSpace=wrap;html=1;align=center;" parent="1" vertex="1">
          <mxGeometry x="640" y="590" width="100" height="40" as="geometry" />
        </mxCell>
        <mxCell id="SFeuMDwEzgv_Abs5cE5h-53" value="Nome Cor" style="ellipse;whiteSpace=wrap;html=1;align=center;" parent="1" vertex="1">
          <mxGeometry x="752" y="590" width="100" height="40" as="geometry" />
        </mxCell>
        <mxCell id="SFeuMDwEzgv_Abs5cE5h-54" style="edgeStyle=orthogonalEdgeStyle;rounded=0;orthogonalLoop=1;jettySize=auto;html=1;exitX=0;exitY=0.5;exitDx=0;exitDy=0;entryX=0.5;entryY=0;entryDx=0;entryDy=0;endArrow=none;endFill=0;" parent="1" source="SFeuMDwEzgv_Abs5cE5h-55" target="SFeuMDwEzgv_Abs5cE5h-41" edge="1">
          <mxGeometry relative="1" as="geometry" />
        </mxCell>
        <mxCell id="SFeuMDwEzgv_Abs5cE5h-55" value="" style="rhombus;whiteSpace=wrap;html=1;direction=west;" parent="1" vertex="1">
          <mxGeometry x="1019" y="570" width="80" height="50" as="geometry" />
        </mxCell>
        <mxCell id="SFeuMDwEzgv_Abs5cE5h-56" style="edgeStyle=orthogonalEdgeStyle;rounded=0;orthogonalLoop=1;jettySize=auto;html=1;exitX=0.5;exitY=1;exitDx=0;exitDy=0;entryX=0.5;entryY=0;entryDx=0;entryDy=0;endArrow=none;endFill=0;" parent="1" source="SFeuMDwEzgv_Abs5cE5h-57" target="SFeuMDwEzgv_Abs5cE5h-47" edge="1">
          <mxGeometry relative="1" as="geometry" />
        </mxCell>
        <mxCell id="SFeuMDwEzgv_Abs5cE5h-57" value="" style="rhombus;whiteSpace=wrap;html=1;" parent="1" vertex="1">
          <mxGeometry x="913" y="460" width="80" height="50" as="geometry" />
        </mxCell>
        <mxCell id="SFeuMDwEzgv_Abs5cE5h-58" value="" style="rhombus;whiteSpace=wrap;html=1;" parent="1" vertex="1">
          <mxGeometry x="720" y="430" width="80" height="50" as="geometry" />
        </mxCell>
        <mxCell id="SFeuMDwEzgv_Abs5cE5h-59" value="1" style="text;html=1;align=center;verticalAlign=middle;resizable=0;points=[];autosize=1;strokeColor=none;fillColor=none;" parent="1" vertex="1">
          <mxGeometry x="843" y="200" width="30" height="30" as="geometry" />
        </mxCell>
        <mxCell id="SFeuMDwEzgv_Abs5cE5h-60" value="1" style="text;html=1;align=center;verticalAlign=middle;resizable=0;points=[];autosize=1;strokeColor=none;fillColor=none;" parent="1" vertex="1">
          <mxGeometry x="1159" y="595" width="30" height="30" as="geometry" />
        </mxCell>
        <mxCell id="SFeuMDwEzgv_Abs5cE5h-61" value="N" style="text;html=1;align=center;verticalAlign=middle;resizable=0;points=[];autosize=1;strokeColor=none;fillColor=none;" parent="1" vertex="1">
          <mxGeometry x="978" y="595" width="30" height="30" as="geometry" />
        </mxCell>
        <mxCell id="SFeuMDwEzgv_Abs5cE5h-62" value="N" style="text;html=1;align=center;verticalAlign=middle;resizable=0;points=[];autosize=1;strokeColor=none;fillColor=none;" parent="1" vertex="1">
          <mxGeometry x="873" y="200" width="30" height="30" as="geometry" />
        </mxCell>
        <mxCell id="SFeuMDwEzgv_Abs5cE5h-63" value="1" style="text;html=1;align=center;verticalAlign=middle;resizable=0;points=[];autosize=1;strokeColor=none;fillColor=none;" parent="1" vertex="1">
          <mxGeometry x="947" y="595" width="30" height="30" as="geometry" />
        </mxCell>
        <mxCell id="SFeuMDwEzgv_Abs5cE5h-64" style="edgeStyle=orthogonalEdgeStyle;rounded=0;orthogonalLoop=1;jettySize=auto;html=1;exitX=0.5;exitY=0;exitDx=0;exitDy=0;entryX=0;entryY=0.5;entryDx=0;entryDy=0;endArrow=none;endFill=0;" parent="1" source="SFeuMDwEzgv_Abs5cE5h-67" target="SFeuMDwEzgv_Abs5cE5h-68" edge="1">
          <mxGeometry relative="1" as="geometry" />
        </mxCell>
        <mxCell id="SFeuMDwEzgv_Abs5cE5h-65" style="edgeStyle=orthogonalEdgeStyle;rounded=0;orthogonalLoop=1;jettySize=auto;html=1;exitX=0.75;exitY=0;exitDx=0;exitDy=0;entryX=0;entryY=0.5;entryDx=0;entryDy=0;endArrow=none;endFill=0;" parent="1" source="SFeuMDwEzgv_Abs5cE5h-67" target="SFeuMDwEzgv_Abs5cE5h-69" edge="1">
          <mxGeometry relative="1" as="geometry">
            <Array as="points">
              <mxPoint x="510" y="70" />
              <mxPoint x="510" />
              <mxPoint x="600" />
            </Array>
          </mxGeometry>
        </mxCell>
        <mxCell id="SFeuMDwEzgv_Abs5cE5h-66" style="edgeStyle=orthogonalEdgeStyle;rounded=0;orthogonalLoop=1;jettySize=auto;html=1;exitX=0;exitY=0.25;exitDx=0;exitDy=0;entryX=1;entryY=0.5;entryDx=0;entryDy=0;endArrow=none;endFill=0;" parent="1" source="SFeuMDwEzgv_Abs5cE5h-67" target="SFeuMDwEzgv_Abs5cE5h-75" edge="1">
          <mxGeometry relative="1" as="geometry" />
        </mxCell>
        <mxCell id="SFeuMDwEzgv_Abs5cE5h-67" value="Acidente" style="rounded=1;arcSize=10;whiteSpace=wrap;html=1;align=center;" parent="1" vertex="1">
          <mxGeometry x="440" y="70" width="100" height="40" as="geometry" />
        </mxCell>
        <mxCell id="SFeuMDwEzgv_Abs5cE5h-68" value="&lt;b&gt;Id Acidente&lt;/b&gt;" style="ellipse;whiteSpace=wrap;html=1;align=center;" parent="1" vertex="1">
          <mxGeometry x="600" y="-50" width="100" height="40" as="geometry" />
        </mxCell>
        <mxCell id="SFeuMDwEzgv_Abs5cE5h-69" value="Data" style="ellipse;whiteSpace=wrap;html=1;align=center;" parent="1" vertex="1">
          <mxGeometry x="600" y="-10" width="100" height="40" as="geometry" />
        </mxCell>
        <mxCell id="SFeuMDwEzgv_Abs5cE5h-70" value="Hora" style="ellipse;whiteSpace=wrap;html=1;align=center;" parent="1" vertex="1">
          <mxGeometry x="600" y="30" width="100" height="40" as="geometry" />
        </mxCell>
        <mxCell id="SFeuMDwEzgv_Abs5cE5h-71" value="Rua&amp;nbsp;" style="ellipse;whiteSpace=wrap;html=1;align=center;" parent="1" vertex="1">
          <mxGeometry x="600" y="70" width="100" height="40" as="geometry" />
        </mxCell>
        <mxCell id="SFeuMDwEzgv_Abs5cE5h-72" value="Bairro" style="ellipse;whiteSpace=wrap;html=1;align=center;" parent="1" vertex="1">
          <mxGeometry x="600" y="110" width="100" height="40" as="geometry" />
        </mxCell>
        <mxCell id="SFeuMDwEzgv_Abs5cE5h-74" style="edgeStyle=orthogonalEdgeStyle;rounded=0;orthogonalLoop=1;jettySize=auto;html=1;exitX=0;exitY=0.5;exitDx=0;exitDy=0;entryX=0.75;entryY=1;entryDx=0;entryDy=0;endArrow=none;endFill=0;" parent="1" source="SFeuMDwEzgv_Abs5cE5h-75" target="SFeuMDwEzgv_Abs5cE5h-17" edge="1">
          <mxGeometry relative="1" as="geometry">
            <Array as="points">
              <mxPoint x="223" y="145" />
            </Array>
          </mxGeometry>
        </mxCell>
        <mxCell id="SFeuMDwEzgv_Abs5cE5h-75" value="" style="rhombus;whiteSpace=wrap;html=1;" parent="1" vertex="1">
          <mxGeometry x="295" y="120" width="80" height="50" as="geometry" />
        </mxCell>
        <mxCell id="SFeuMDwEzgv_Abs5cE5h-76" value="" style="rhombus;whiteSpace=wrap;html=1;" parent="1" vertex="1">
          <mxGeometry x="160" y="210" width="80" height="50" as="geometry" />
        </mxCell>
        <mxCell id="SFeuMDwEzgv_Abs5cE5h-77" value="1" style="text;html=1;align=center;verticalAlign=middle;resizable=0;points=[];autosize=1;strokeColor=none;fillColor=none;" parent="1" vertex="1">
          <mxGeometry x="190" y="130" width="30" height="30" as="geometry" />
        </mxCell>
        <mxCell id="SFeuMDwEzgv_Abs5cE5h-78" value="1" style="text;html=1;align=center;verticalAlign=middle;resizable=0;points=[];autosize=1;strokeColor=none;fillColor=none;" parent="1" vertex="1">
          <mxGeometry x="760" y="480" width="30" height="30" as="geometry" />
        </mxCell>
        <mxCell id="SFeuMDwEzgv_Abs5cE5h-79" style="edgeStyle=orthogonalEdgeStyle;rounded=0;orthogonalLoop=1;jettySize=auto;html=1;endArrow=none;endFill=0;exitX=1;exitY=0.25;exitDx=0;exitDy=0;entryX=0.138;entryY=0.656;entryDx=0;entryDy=0;entryPerimeter=0;" parent="1" source="SFeuMDwEzgv_Abs5cE5h-2" edge="1">
          <mxGeometry relative="1" as="geometry">
            <mxPoint x="275.17999999999984" y="252.80000000000007" as="targetPoint" />
            <Array as="points">
              <mxPoint x="275" y="380" />
            </Array>
            <mxPoint x="262.66" y="360" as="sourcePoint" />
          </mxGeometry>
        </mxCell>
        <mxCell id="SFeuMDwEzgv_Abs5cE5h-80" style="edgeStyle=orthogonalEdgeStyle;rounded=0;orthogonalLoop=1;jettySize=auto;html=1;endArrow=none;endFill=0;entryX=0.831;entryY=0.681;entryDx=0;entryDy=0;entryPerimeter=0;exitX=0.3;exitY=-0.039;exitDx=0;exitDy=0;exitPerimeter=0;" parent="1" source="SFeuMDwEzgv_Abs5cE5h-59" edge="1">
          <mxGeometry relative="1" as="geometry">
            <mxPoint x="440" y="350" as="sourcePoint" />
            <mxPoint x="351.4100000000001" y="254.05000000000007" as="targetPoint" />
            <Array as="points">
              <mxPoint x="830" y="199" />
              <mxPoint x="830" y="280" />
              <mxPoint x="351" y="280" />
            </Array>
          </mxGeometry>
        </mxCell>
        <mxCell id="SFeuMDwEzgv_Abs5cE5h-81" value="&lt;b&gt;Contrato&lt;/b&gt;" style="ellipse;whiteSpace=wrap;html=1;align=center;" parent="1" vertex="1">
          <mxGeometry x="235" y="170" width="55" height="30" as="geometry" />
        </mxCell>
        <mxCell id="SFeuMDwEzgv_Abs5cE5h-82" style="edgeStyle=orthogonalEdgeStyle;rounded=0;orthogonalLoop=1;jettySize=auto;html=1;endArrow=none;endFill=0;entryX=1;entryY=0.5;entryDx=0;entryDy=0;exitX=0;exitY=0.5;exitDx=0;exitDy=0;" parent="1" source="SFeuMDwEzgv_Abs5cE5h-83" target="SFeuMDwEzgv_Abs5cE5h-81" edge="1">
          <mxGeometry relative="1" as="geometry">
            <mxPoint x="385" y="160" as="targetPoint" />
            <Array as="points">
              <mxPoint x="338" y="185" />
              <mxPoint x="338" y="220" />
              <mxPoint x="300" y="220" />
              <mxPoint x="300" y="185" />
            </Array>
            <mxPoint x="340" y="185" as="sourcePoint" />
          </mxGeometry>
        </mxCell>
        <mxCell id="SFeuMDwEzgv_Abs5cE5h-83" value="Data" style="ellipse;whiteSpace=wrap;html=1;align=center;" parent="1" vertex="1">
          <mxGeometry x="344" y="170" width="70" height="30" as="geometry" />
        </mxCell>
        <mxCell id="SFeuMDwEzgv_Abs5cE5h-84" value="1" style="text;html=1;align=center;verticalAlign=middle;resizable=0;points=[];autosize=1;strokeColor=none;fillColor=none;" parent="1" vertex="1">
          <mxGeometry x="415" y="75" width="30" height="30" as="geometry" />
        </mxCell>
        <mxCell id="SFeuMDwEzgv_Abs5cE5h-85" value="N" style="text;html=1;align=center;verticalAlign=middle;resizable=0;points=[];autosize=1;strokeColor=none;fillColor=none;" parent="1" vertex="1">
          <mxGeometry x="220" y="120" width="30" height="30" as="geometry" />
        </mxCell>
        <mxCell id="SFeuMDwEzgv_Abs5cE5h-86" value="N" style="text;html=1;align=center;verticalAlign=middle;resizable=0;points=[];autosize=1;strokeColor=none;fillColor=none;" parent="1" vertex="1">
          <mxGeometry x="450" y="105" width="30" height="30" as="geometry" />
        </mxCell>
        <mxCell id="SFeuMDwEzgv_Abs5cE5h-87" value="Telefone" style="ellipse;whiteSpace=wrap;html=1;align=center;" parent="1" vertex="1">
          <mxGeometry y="530" width="100" height="40" as="geometry" />
        </mxCell>
        <mxCell id="SFeuMDwEzgv_Abs5cE5h-88" value="" style="endArrow=none;html=1;rounded=0;entryX=0.694;entryY=0.993;entryDx=0;entryDy=0;entryPerimeter=0;" parent="1" target="SFeuMDwEzgv_Abs5cE5h-2" edge="1">
          <mxGeometry relative="1" as="geometry">
            <mxPoint x="100" y="549.71" as="sourcePoint" />
            <mxPoint x="260" y="549.71" as="targetPoint" />
            <Array as="points">
              <mxPoint x="200" y="550" />
            </Array>
          </mxGeometry>
        </mxCell>
        <mxCell id="SFeuMDwEzgv_Abs5cE5h-89" value="&lt;b&gt;IdFunc&lt;/b&gt;" style="ellipse;whiteSpace=wrap;html=1;align=center;" parent="1" vertex="1">
          <mxGeometry x="110" y="580" width="100" height="40" as="geometry" />
        </mxCell>
        <mxCell id="SFeuMDwEzgv_Abs5cE5h-90" value="Nome" style="ellipse;whiteSpace=wrap;html=1;align=center;" parent="1" vertex="1">
          <mxGeometry x="110" y="620" width="100" height="40" as="geometry" />
        </mxCell>
        <mxCell id="SFeuMDwEzgv_Abs5cE5h-91" value="Email" style="ellipse;whiteSpace=wrap;html=1;align=center;" parent="1" vertex="1">
          <mxGeometry x="110" y="660" width="100" height="40" as="geometry" />
        </mxCell>
        <mxCell id="SFeuMDwEzgv_Abs5cE5h-92" value="Rua" style="ellipse;whiteSpace=wrap;html=1;align=center;" parent="1" vertex="1">
          <mxGeometry x="110" y="700" width="100" height="40" as="geometry" />
        </mxCell>
        <mxCell id="SFeuMDwEzgv_Abs5cE5h-93" value="FuncionÃ¡rio" style="rounded=1;arcSize=10;whiteSpace=wrap;html=1;align=center;" parent="1" vertex="1">
          <mxGeometry x="230" y="580" width="100" height="40" as="geometry" />
        </mxCell>
        <mxCell id="SFeuMDwEzgv_Abs5cE5h-94" value="Bairro" style="ellipse;whiteSpace=wrap;html=1;align=center;" parent="1" vertex="1">
          <mxGeometry x="110" y="740" width="100" height="40" as="geometry" />
        </mxCell>
        <mxCell id="SFeuMDwEzgv_Abs5cE5h-95" value="1" style="text;html=1;align=center;verticalAlign=middle;resizable=0;points=[];autosize=1;strokeColor=none;fillColor=none;" parent="1" vertex="1">
          <mxGeometry x="822" y="200" width="30" height="30" as="geometry" />
        </mxCell>
        <mxCell id="SFeuMDwEzgv_Abs5cE5h-96" value="" style="endArrow=none;html=1;rounded=0;exitX=0.5;exitY=0;exitDx=0;exitDy=0;" parent="1" source="SFeuMDwEzgv_Abs5cE5h-51" edge="1">
          <mxGeometry relative="1" as="geometry">
            <mxPoint x="600" y="480" as="sourcePoint" />
            <mxPoint x="760" y="480" as="targetPoint" />
          </mxGeometry>
        </mxCell>
        <mxCell id="SFeuMDwEzgv_Abs5cE5h-97" value="" style="endArrow=none;html=1;rounded=0;exitX=0.66;exitY=1;exitDx=0;exitDy=0;exitPerimeter=0;" parent="1" source="SFeuMDwEzgv_Abs5cE5h-51" target="SFeuMDwEzgv_Abs5cE5h-53" edge="1">
          <mxGeometry relative="1" as="geometry">
            <mxPoint x="690" y="650" as="sourcePoint" />
            <mxPoint x="850" y="650" as="targetPoint" />
            <Array as="points">
              <mxPoint x="776" y="590" />
            </Array>
          </mxGeometry>
        </mxCell>
        <mxCell id="SFeuMDwEzgv_Abs5cE5h-98" value="CPF" style="ellipse;whiteSpace=wrap;html=1;align=center;" parent="1" vertex="1">
          <mxGeometry x="110" y="780" width="100" height="40" as="geometry" />
        </mxCell>
        <mxCell id="SFeuMDwEzgv_Abs5cE5h-99" value="" style="rhombus;whiteSpace=wrap;html=1;" parent="1" vertex="1">
          <mxGeometry x="275" y="440" width="80" height="50" as="geometry" />
        </mxCell>
        <mxCell id="SFeuMDwEzgv_Abs5cE5h-100" value="" style="endArrow=none;html=1;rounded=0;exitX=0.5;exitY=1;exitDx=0;exitDy=0;" parent="1" source="SFeuMDwEzgv_Abs5cE5h-107" target="SFeuMDwEzgv_Abs5cE5h-99" edge="1">
          <mxGeometry relative="1" as="geometry">
            <mxPoint x="315" y="270" as="sourcePoint" />
            <mxPoint x="504" y="370" as="targetPoint" />
          </mxGeometry>
        </mxCell>
        <mxCell id="SFeuMDwEzgv_Abs5cE5h-101" value="N" style="resizable=0;html=1;whiteSpace=wrap;align=right;verticalAlign=bottom;" parent="SFeuMDwEzgv_Abs5cE5h-100" connectable="0" vertex="1">
          <mxGeometry x="1" relative="1" as="geometry">
            <mxPoint x="50" y="-140" as="offset" />
          </mxGeometry>
        </mxCell>
        <mxCell id="SFeuMDwEzgv_Abs5cE5h-102" value="" style="endArrow=none;html=1;rounded=0;exitX=0.5;exitY=1;exitDx=0;exitDy=0;entryX=0.837;entryY=-0.029;entryDx=0;entryDy=0;entryPerimeter=0;" parent="1" source="SFeuMDwEzgv_Abs5cE5h-99" target="SFeuMDwEzgv_Abs5cE5h-93" edge="1">
          <mxGeometry relative="1" as="geometry">
            <mxPoint x="410" y="630" as="sourcePoint" />
            <mxPoint x="570" y="630" as="targetPoint" />
          </mxGeometry>
        </mxCell>
        <mxCell id="SFeuMDwEzgv_Abs5cE5h-103" value="1" style="text;html=1;align=center;verticalAlign=middle;resizable=0;points=[];autosize=1;strokeColor=none;fillColor=none;" parent="1" vertex="1">
          <mxGeometry x="310" y="555" width="30" height="30" as="geometry" />
        </mxCell>
        <mxCell id="SFeuMDwEzgv_Abs5cE5h-104" value="N" style="text;html=1;align=center;verticalAlign=middle;resizable=0;points=[];autosize=1;strokeColor=none;fillColor=none;" parent="1" vertex="1">
          <mxGeometry x="270" y="260" width="30" height="30" as="geometry" />
        </mxCell>
        <mxCell id="SFeuMDwEzgv_Abs5cE5h-105" value="1" style="text;html=1;align=center;verticalAlign=middle;resizable=0;points=[];autosize=1;strokeColor=none;fillColor=none;" parent="1" vertex="1">
          <mxGeometry x="230" y="375" width="30" height="30" as="geometry" />
        </mxCell>
        <mxCell id="SFeuMDwEzgv_Abs5cE5h-106" value="N" style="text;html=1;align=center;verticalAlign=middle;resizable=0;points=[];autosize=1;strokeColor=none;fillColor=none;" parent="1" vertex="1">
          <mxGeometry x="310" y="260" width="30" height="30" as="geometry" />
        </mxCell>
        <mxCell id="SFeuMDwEzgv_Abs5cE5h-107" value="LocaÃ§Ã£o" style="rounded=1;arcSize=10;whiteSpace=wrap;html=1;align=center;" parent="1" vertex="1">
          <mxGeometry x="265" y="220" width="100" height="40" as="geometry" />
        </mxCell>
        <mxCell id="SFeuMDwEzgv_Abs5cE5h-108" value="" style="endArrow=none;html=1;rounded=0;" parent="1" edge="1">
          <mxGeometry relative="1" as="geometry">
            <mxPoint x="210" y="600" as="sourcePoint" />
            <mxPoint x="230" y="600" as="targetPoint" />
          </mxGeometry>
        </mxCell>
        <mxCell id="SFeuMDwEzgv_Abs5cE5h-109" value="" style="endArrow=none;html=1;rounded=0;entryX=0.387;entryY=1.013;entryDx=0;entryDy=0;entryPerimeter=0;" parent="1" target="SFeuMDwEzgv_Abs5cE5h-93" edge="1">
          <mxGeometry relative="1" as="geometry">
            <mxPoint x="210" y="640" as="sourcePoint" />
            <mxPoint x="370" y="640" as="targetPoint" />
            <Array as="points">
              <mxPoint x="269" y="640" />
            </Array>
          </mxGeometry>
        </mxCell>
        <mxCell id="SFeuMDwEzgv_Abs5cE5h-110" value="" style="endArrow=none;html=1;rounded=0;entryX=0.595;entryY=0.992;entryDx=0;entryDy=0;entryPerimeter=0;" parent="1" target="SFeuMDwEzgv_Abs5cE5h-93" edge="1">
          <mxGeometry relative="1" as="geometry">
            <mxPoint x="210" y="680" as="sourcePoint" />
            <mxPoint x="300" y="620" as="targetPoint" />
            <Array as="points">
              <mxPoint x="290" y="680" />
              <mxPoint x="290" y="650" />
            </Array>
          </mxGeometry>
        </mxCell>
        <mxCell id="SFeuMDwEzgv_Abs5cE5h-111" value="" style="endArrow=none;html=1;rounded=0;entryX=0.75;entryY=1;entryDx=0;entryDy=0;" parent="1" target="SFeuMDwEzgv_Abs5cE5h-93" edge="1">
          <mxGeometry relative="1" as="geometry">
            <mxPoint x="210" y="720" as="sourcePoint" />
            <mxPoint x="370" y="720" as="targetPoint" />
            <Array as="points">
              <mxPoint x="305" y="720" />
            </Array>
          </mxGeometry>
        </mxCell>
        <mxCell id="SFeuMDwEzgv_Abs5cE5h-112" value="" style="endArrow=none;html=1;rounded=0;entryX=0.862;entryY=1.033;entryDx=0;entryDy=0;entryPerimeter=0;" parent="1" target="SFeuMDwEzgv_Abs5cE5h-93" edge="1">
          <mxGeometry relative="1" as="geometry">
            <mxPoint x="210" y="760" as="sourcePoint" />
            <mxPoint x="370" y="760" as="targetPoint" />
            <Array as="points">
              <mxPoint x="316" y="760" />
            </Array>
          </mxGeometry>
        </mxCell>
        <mxCell id="SFeuMDwEzgv_Abs5cE5h-113" value="" style="endArrow=none;html=1;rounded=0;entryX=0.953;entryY=1.033;entryDx=0;entryDy=0;entryPerimeter=0;" parent="1" target="SFeuMDwEzgv_Abs5cE5h-93" edge="1">
          <mxGeometry relative="1" as="geometry">
            <mxPoint x="210" y="799.58" as="sourcePoint" />
            <mxPoint x="370" y="799.58" as="targetPoint" />
            <Array as="points">
              <mxPoint x="325" y="800" />
            </Array>
          </mxGeometry>
        </mxCell>
        <mxCell id="SFeuMDwEzgv_Abs5cE5h-114" value="" style="rhombus;whiteSpace=wrap;html=1;" parent="1" vertex="1">
          <mxGeometry x="-150" y="360" width="80" height="50" as="geometry" />
        </mxCell>
        <mxCell id="SFeuMDwEzgv_Abs5cE5h-115" value="" style="endArrow=none;html=1;rounded=0;entryX=0.25;entryY=1;entryDx=0;entryDy=0;exitX=0.5;exitY=0;exitDx=0;exitDy=0;" parent="1" source="SFeuMDwEzgv_Abs5cE5h-114" target="SFeuMDwEzgv_Abs5cE5h-17" edge="1">
          <mxGeometry relative="1" as="geometry">
            <mxPoint x="-70" y="198.57" as="sourcePoint" />
            <mxPoint x="90" y="198.57" as="targetPoint" />
            <Array as="points">
              <mxPoint x="-110" y="200" />
              <mxPoint x="-110" y="130" />
            </Array>
          </mxGeometry>
        </mxCell>
        <mxCell id="SFeuMDwEzgv_Abs5cE5h-116" value="" style="endArrow=none;html=1;rounded=0;exitX=0.5;exitY=1;exitDx=0;exitDy=0;entryX=0.5;entryY=0;entryDx=0;entryDy=0;" parent="1" source="SFeuMDwEzgv_Abs5cE5h-114" target="SFeuMDwEzgv_Abs5cE5h-93" edge="1">
          <mxGeometry relative="1" as="geometry">
            <mxPoint x="-110" y="570" as="sourcePoint" />
            <mxPoint x="50" y="570" as="targetPoint" />
            <Array as="points">
              <mxPoint x="-110" y="580" />
            </Array>
          </mxGeometry>
        </mxCell>
        <mxCell id="SFeuMDwEzgv_Abs5cE5h-117" value="1" style="text;html=1;align=center;verticalAlign=middle;resizable=0;points=[];autosize=1;strokeColor=none;fillColor=none;" parent="1" vertex="1">
          <mxGeometry x="132" y="130" width="30" height="30" as="geometry" />
        </mxCell>
        <mxCell id="SFeuMDwEzgv_Abs5cE5h-118" value="N" style="text;html=1;align=center;verticalAlign=middle;resizable=0;points=[];autosize=1;strokeColor=none;fillColor=none;" parent="1" vertex="1">
          <mxGeometry x="230" y="550" width="30" height="30" as="geometry" />
        </mxCell>
        <mxCell id="SFeuMDwEzgv_Abs5cE5h-125" value="PartesAtingidas" style="ellipse;whiteSpace=wrap;html=1;align=center;" parent="1" vertex="1">
          <mxGeometry x="600" y="150" width="100" height="40" as="geometry" />
        </mxCell>
        <mxCell id="SFeuMDwEzgv_Abs5cE5h-126" value="" style="endArrow=none;html=1;rounded=0;exitX=0.879;exitY=-0.004;exitDx=0;exitDy=0;exitPerimeter=0;entryX=0;entryY=0.5;entryDx=0;entryDy=0;" parent="1" source="SFeuMDwEzgv_Abs5cE5h-67" target="SFeuMDwEzgv_Abs5cE5h-70" edge="1">
          <mxGeometry relative="1" as="geometry">
            <mxPoint x="530" y="40" as="sourcePoint" />
            <mxPoint x="690" y="40" as="targetPoint" />
            <Array as="points">
              <mxPoint x="550" y="50" />
            </Array>
          </mxGeometry>
        </mxCell>
        <mxCell id="SFeuMDwEzgv_Abs5cE5h-127" value="" style="endArrow=none;html=1;rounded=0;entryX=0;entryY=0.5;entryDx=0;entryDy=0;" parent="1" source="SFeuMDwEzgv_Abs5cE5h-67" target="SFeuMDwEzgv_Abs5cE5h-71" edge="1">
          <mxGeometry relative="1" as="geometry">
            <mxPoint x="540" y="90" as="sourcePoint" />
            <mxPoint x="700" y="90" as="targetPoint" />
          </mxGeometry>
        </mxCell>
        <mxCell id="SFeuMDwEzgv_Abs5cE5h-128" value="" style="endArrow=none;html=1;rounded=0;entryX=0;entryY=0.5;entryDx=0;entryDy=0;" parent="1" target="SFeuMDwEzgv_Abs5cE5h-72" edge="1">
          <mxGeometry relative="1" as="geometry">
            <mxPoint x="530" y="110" as="sourcePoint" />
            <mxPoint x="700" y="140" as="targetPoint" />
            <Array as="points">
              <mxPoint x="530" y="130" />
            </Array>
          </mxGeometry>
        </mxCell>
        <mxCell id="SFeuMDwEzgv_Abs5cE5h-129" value="" style="endArrow=none;html=1;rounded=0;exitX=0.65;exitY=1.039;exitDx=0;exitDy=0;exitPerimeter=0;" parent="1" source="SFeuMDwEzgv_Abs5cE5h-67" edge="1">
          <mxGeometry relative="1" as="geometry">
            <mxPoint x="510" y="170" as="sourcePoint" />
            <mxPoint x="600" y="170" as="targetPoint" />
            <Array as="points">
              <mxPoint x="505" y="170" />
            </Array>
          </mxGeometry>
        </mxCell>
        <mxCell id="SFeuMDwEzgv_Abs5cE5h-139" value="" style="endArrow=none;html=1;rounded=0;entryX=0;entryY=0.5;entryDx=0;entryDy=0;" parent="1" target="SFeuMDwEzgv_Abs5cE5h-142" edge="1">
          <mxGeometry relative="1" as="geometry">
            <mxPoint x="456" y="110" as="sourcePoint" />
            <mxPoint x="456" y="170" as="targetPoint" />
            <Array as="points">
              <mxPoint x="456" y="235" />
            </Array>
          </mxGeometry>
        </mxCell>
        <mxCell id="SFeuMDwEzgv_Abs5cE5h-141" value="&lt;font style=&quot;font-size: 11px;&quot;&gt;1&lt;/font&gt;" style="text;html=1;align=center;verticalAlign=middle;resizable=0;points=[];autosize=1;strokeColor=none;fillColor=none;" parent="1" vertex="1">
          <mxGeometry x="827" y="170" width="30" height="30" as="geometry" />
        </mxCell>
        <mxCell id="SFeuMDwEzgv_Abs5cE5h-142" value="" style="rhombus;whiteSpace=wrap;html=1;" parent="1" vertex="1">
          <mxGeometry x="560" y="210" width="80" height="50" as="geometry" />
        </mxCell>
        <mxCell id="SFeuMDwEzgv_Abs5cE5h-143" value="" style="endArrow=none;html=1;rounded=0;" parent="1" source="SFeuMDwEzgv_Abs5cE5h-142" target="SFeuMDwEzgv_Abs5cE5h-26" edge="1">
          <mxGeometry relative="1" as="geometry">
            <mxPoint x="640" y="235" as="sourcePoint" />
            <mxPoint x="850" y="170" as="targetPoint" />
            <Array as="points">
              <mxPoint x="760" y="240" />
              <mxPoint x="760" y="180" />
              <mxPoint x="790" y="180" />
            </Array>
          </mxGeometry>
        </mxCell>
      </root>
    </mxGraphModel>
  </diagram>
</mxfile>
